<svg xmlns="http://www.w3.org/2000/svg" xmlns:xlink="http://www.w3.org/1999/xlink" viewBox="0 0 340.31 311.29"><defs><style>.cls-1{isolation:isolate;}.cls-2{fill:url(#linear-gradient);}.cls-3{fill:url(#linear-gradient-2);}.cls-11,.cls-31,.cls-39,.cls-4,.cls-42,.cls-5,.cls-54,.cls-55,.cls-56,.cls-6,.cls-7,.cls-8,.cls-9{opacity:0.8;}.cls-11,.cls-15,.cls-17,.cls-19,.cls-22,.cls-23,.cls-26,.cls-31,.cls-39,.cls-4,.cls-42,.cls-5,.cls-54,.cls-55,.cls-56,.cls-6,.cls-7,.cls-8,.cls-9{mix-blend-mode:multiply;}.cls-4{fill:url(#linear-gradient-3);}.cls-5{fill:url(#linear-gradient-4);}.cls-6{fill:url(#linear-gradient-5);}.cls-7{fill:url(#linear-gradient-6);}.cls-8{fill:url(#linear-gradient-7);}.cls-9{fill:url(#linear-gradient-8);}.cls-10{fill:#cbdfef;}.cls-11{fill:url(#linear-gradient-9);}.cls-12,.cls-20,.cls-30{fill:#fff;}.cls-13{fill:url(#linear-gradient-10);}.cls-14{fill:#809297;}.cls-15{fill:url(#linear-gradient-11);}.cls-16{fill:#8a9ea2;}.cls-17{fill:url(#linear-gradient-12);}.cls-18{fill:#92a7ac;}.cls-19{fill:url(#linear-gradient-13);}.cls-20{opacity:0.1;}.cls-21{fill:#fdc870;}.cls-22{fill:url(#linear-gradient-14);}.cls-23{fill:url(#linear-gradient-15);}.cls-24,.cls-25{mix-blend-mode:overlay;}.cls-24{fill:url(#linear-gradient-16);}.cls-25{fill:url(#linear-gradient-17);}.cls-26{fill:url(#linear-gradient-18);}.cls-27,.cls-28,.cls-36,.cls-37,.cls-45,.cls-46,.cls-59{opacity:0.7;}.cls-27{fill:url(#linear-gradient-19);}.cls-28{fill:url(#linear-gradient-20);}.cls-29{fill:url(#linear-gradient-21);}.cls-30{mix-blend-mode:soft-light;}.cls-31{fill:url(#linear-gradient-22);}.cls-32{fill:url(#linear-gradient-23);}.cls-33{fill:#ffb300;}.cls-34{fill:#ffa000;}.cls-35{fill:#ffca28;}.cls-36{fill:url(#linear-gradient-24);}.cls-37{fill:url(#linear-gradient-25);}.cls-38{fill:url(#linear-gradient-26);}.cls-39{fill:url(#linear-gradient-27);}.cls-40{fill:url(#linear-gradient-28);}.cls-41{fill:#d32f2f;}.cls-42{fill:url(#linear-gradient-29);}.cls-43{fill:#ef5350;}.cls-44,.cls-53,.cls-61,.cls-63{fill:none;stroke:#fff;}.cls-44,.cls-53{stroke-miterlimit:10;}.cls-44,.cls-61{stroke-width:1.04px;}.cls-45{fill:url(#linear-gradient-30);}.cls-46{fill:url(#linear-gradient-31);}.cls-47{fill:url(#linear-gradient-32);}.cls-48{fill:#25284c;}.cls-49{fill:#111638;}.cls-50{fill:#f5f5f5;}.cls-51{fill:#7b92b9;}.cls-52{fill:#6a7ea2;}.cls-53{stroke-width:0.75px;}.cls-54{fill:url(#linear-gradient-33);}.cls-55{fill:url(#linear-gradient-34);}.cls-56{fill:url(#linear-gradient-35);}.cls-57{fill:url(#linear-gradient-36);}.cls-58{fill:url(#linear-gradient-37);}.cls-59{fill:url(#linear-gradient-38);}.cls-60{fill:url(#linear-gradient-39);}.cls-61,.cls-63{stroke-linecap:round;stroke-linejoin:round;}.cls-62{fill:#ffee58;}.cls-63{stroke-width:0.52px;}.cls-64{fill:url(#linear-gradient-40);}</style><linearGradient id="linear-gradient" x1="170.16" y1="305.51" x2="170.16" y2="-4.04" gradientUnits="userSpaceOnUse"><stop offset="0" stop-color="#ac24b9"/><stop offset="1" stop-color="#2e2142"/></linearGradient><linearGradient id="linear-gradient-2" x1="17.18" y1="302.45" x2="0.28" y2="196.02" xlink:href="#linear-gradient"/><linearGradient id="linear-gradient-3" x1="80.82" y1="304.69" x2="84.04" y2="260.46" gradientUnits="userSpaceOnUse"><stop offset="0" stop-color="#fff" stop-opacity="0"/><stop offset="1" stop-color="#662d8d"/></linearGradient><linearGradient id="linear-gradient-4" x1="184.58" y1="305.75" x2="187.8" y2="261.51" xlink:href="#linear-gradient-3"/><linearGradient id="linear-gradient-5" x1="192.64" y1="257.86" x2="48.52" y2="256.1" xlink:href="#linear-gradient-3"/><linearGradient id="linear-gradient-6" x1="150.9" y1="113.51" x2="72.99" y2="200.8" xlink:href="#linear-gradient-3"/><linearGradient id="linear-gradient-7" x1="389.57" y1="244.55" x2="224.04" y2="244.55" xlink:href="#linear-gradient-3"/><linearGradient id="linear-gradient-8" x1="365.35" y1="194.93" x2="188.95" y2="194.93" xlink:href="#linear-gradient-3"/><linearGradient id="linear-gradient-9" x1="161.84" y1="208.58" x2="241.16" y2="208.58" xlink:href="#linear-gradient-3"/><linearGradient id="linear-gradient-10" x1="169.71" y1="114.9" x2="169.71" y2="219.35" gradientUnits="userSpaceOnUse"><stop offset="0" stop-color="#00d4c8"/><stop offset="1" stop-color="#00d2c7" stop-opacity="0"/></linearGradient><linearGradient id="linear-gradient-11" x1="156.07" y1="154.29" x2="182.58" y2="154.29" gradientUnits="userSpaceOnUse"><stop offset="0" stop-color="#fff" stop-opacity="0"/><stop offset="1" stop-color="#92a7ac"/></linearGradient><linearGradient id="linear-gradient-12" x1="162.32" y1="142.15" x2="187.38" y2="142.15" xlink:href="#linear-gradient-11"/><linearGradient id="linear-gradient-13" x1="158.36" y1="134.63" x2="188.51" y2="134.63" gradientTransform="translate(298.83 -39.78) rotate(88.07)" xlink:href="#linear-gradient-11"/><linearGradient id="linear-gradient-14" x1="160.59" y1="78.81" x2="194.72" y2="119.19" gradientUnits="userSpaceOnUse"><stop offset="0" stop-color="#fff" stop-opacity="0"/><stop offset="1" stop-color="#fdc870"/></linearGradient><linearGradient id="linear-gradient-15" x1="199.91" y1="107.26" x2="199.91" y2="126.95" gradientTransform="translate(-33.74 -28.03) rotate(-1.56)" xlink:href="#linear-gradient-14"/><linearGradient id="linear-gradient-16" x1="212.97" y1="123.3" x2="182.82" y2="72.64" gradientTransform="translate(-31.05 -33.53)" gradientUnits="userSpaceOnUse"><stop offset="0" stop-color="#fff" stop-opacity="0"/><stop offset="1" stop-color="#fff"/></linearGradient><linearGradient id="linear-gradient-17" x1="148.89" y1="104.1" x2="116.3" y2="88.32" gradientTransform="matrix(1, 0, 0, 1, 0, 0)" xlink:href="#linear-gradient-16"/><linearGradient id="linear-gradient-18" x1="164.94" y1="138.36" x2="192.71" y2="123.41" xlink:href="#linear-gradient-14"/><linearGradient id="linear-gradient-19" x1="84.12" y1="112.38" x2="177.65" y2="112.38" xlink:href="#linear-gradient-10"/><linearGradient id="linear-gradient-20" x1="244.05" y1="112.38" x2="178.4" y2="112.38" xlink:href="#linear-gradient-10"/><linearGradient id="linear-gradient-21" x1="169.71" y1="-18.48" x2="169.71" y2="85.97" xlink:href="#linear-gradient-10"/><linearGradient id="linear-gradient-22" x1="263.15" y1="251.48" x2="316.78" y2="251.48" xlink:href="#linear-gradient-3"/><linearGradient id="linear-gradient-23" x1="268.47" y1="188.14" x2="268.47" y2="258.75" xlink:href="#linear-gradient-10"/><linearGradient id="linear-gradient-24" x1="210.6" y1="193.71" x2="273.85" y2="193.71" xlink:href="#linear-gradient-10"/><linearGradient id="linear-gradient-25" x1="318.74" y1="193.71" x2="274.35" y2="193.71" xlink:href="#linear-gradient-10"/><linearGradient id="linear-gradient-26" x1="268.47" y1="112.51" x2="268.47" y2="183.13" xlink:href="#linear-gradient-10"/><linearGradient id="linear-gradient-27" x1="65.52" y1="151.74" x2="119.15" y2="151.74" xlink:href="#linear-gradient-3"/><linearGradient id="linear-gradient-28" x1="70.84" y1="88.4" x2="70.84" y2="159.02" xlink:href="#linear-gradient-10"/><linearGradient id="linear-gradient-29" x1="68.38" y1="68.77" x2="89.28" y2="109" xlink:href="#linear-gradient-3"/><linearGradient id="linear-gradient-30" x1="12.97" y1="93.98" x2="76.21" y2="93.98" xlink:href="#linear-gradient-10"/><linearGradient id="linear-gradient-31" x1="121.11" y1="93.98" x2="76.72" y2="93.98" xlink:href="#linear-gradient-10"/><linearGradient id="linear-gradient-32" x1="70.84" y1="12.78" x2="70.84" y2="83.4" xlink:href="#linear-gradient-10"/><linearGradient id="linear-gradient-33" x1="69.07" y1="184.54" x2="106.95" y2="260.31" xlink:href="#linear-gradient-3"/><linearGradient id="linear-gradient-34" x1="94.86" y1="248.3" x2="197.81" y2="248.3" xlink:href="#linear-gradient-3"/><linearGradient id="linear-gradient-35" x1="94.86" y1="228.18" x2="197.81" y2="228.18" xlink:href="#linear-gradient-3"/><linearGradient id="linear-gradient-36" x1="107.08" y1="188.69" x2="104.43" y2="214.79" xlink:href="#linear-gradient-14"/><linearGradient id="linear-gradient-37" x1="98.15" y1="204.69" x2="91.5" y2="217.31" gradientUnits="userSpaceOnUse"><stop offset="0" stop-color="#ba68c8" stop-opacity="0"/><stop offset="1" stop-color="#ba68c8"/></linearGradient><linearGradient id="linear-gradient-38" x1="113.77" y1="214.5" x2="107.58" y2="226.24" xlink:href="#linear-gradient-10"/><linearGradient id="linear-gradient-39" x1="123.53" y1="214.26" x2="117.55" y2="233.72" gradientUnits="userSpaceOnUse"><stop offset="0" stop-color="#ef5350"/><stop offset="1" stop-color="#ef5350" stop-opacity="0"/></linearGradient><linearGradient id="linear-gradient-40" x1="336.38" y1="149.59" x2="336.38" y2="58.89" gradientTransform="translate(615.85 226.92) rotate(-177.48)" xlink:href="#linear-gradient"/></defs><title>Recurso 1</title><g class="cls-1"><g id="Capa_2" data-name="Capa 2"><g id="Object"><path class="cls-2" d="M338.18,229.38q-.74,4.25-1.71,8.44-.75,3.19-1.62,6.35a130.21,130.21,0,0,1-14.13,33.44c-6.46,10.49-14.76,19.6-25.32,25.94a76.34,76.34,0,0,1-18.1,7.74H61.7C40.85,300,22.55,280.05,26.53,256.72c3.46-20.3,6.71-40.55-.41-59.31C20.94,183.8,10.75,172.61,5,159.22-9.2,126,8.67,95.92,35.17,77.47c1-.67,1.93-1.32,2.91-2l.7-.45c1.08-.69,2.15-1.41,3.2-2.14,2.28-1.59,4.48-3.26,6.64-5h0c1.62-1.32,3.21-2.67,4.78-4.07.37-.32.75-.65,1.11-1q3.24-2.91,6.37-6c1.1-1.07,2.19-2.16,3.28-3.25,8.48-8.51,16.66-17.42,25.62-25.18,8.54-7.39,17.79-13.74,28.69-17.7a102.53,102.53,0,0,1,20.88-5.18,107.27,107.27,0,0,1,79.72,20.9c1.11.85,2.22,1.73,3.32,2.63C234.13,38.67,244.92,50.9,249.69,65c6,17.77,14.87,34.92,31,45.49,13.33,8.71,25.95,14.49,36.57,27.15A93.23,93.23,0,0,1,327.23,152a97.08,97.08,0,0,1,5.92,12.62,103.88,103.88,0,0,1,5,17.73A130.64,130.64,0,0,1,338.18,229.38Z"/><path class="cls-3" d="M2.61,265.4c-.33,5.89,0,12.09,3,17.2,2.48,4.29,8.29,7.58,12.31,4.68,3.05-2.2,3.27-6.72,2.25-10.34s-3-7-3.24-10.77c-.44-5.9,6.54-21-3.94-21.71C3.51,243.85,2.94,259.57,2.61,265.4Z"/><ellipse class="cls-4" cx="82.16" cy="286.28" rx="20.34" ry="8.01"/><ellipse class="cls-5" cx="185.92" cy="287.34" rx="20.34" ry="8.01"/><polygon class="cls-6" points="68.67 251.01 87.06 251.01 127.93 270.04 122.59 282.09 141.73 282.09 183.31 256.3 132.4 238.49 102.15 231.67 68.67 251.01"/><rect class="cls-7" x="72.45" y="111.88" width="100.79" height="66.12"/><path class="cls-8" d="M338.18,211.49v17.89q-.74,4.25-1.71,8.44-.75,3.19-1.62,6.35a130.21,130.21,0,0,1-14.13,33.44H268V211.49Z"/><path class="cls-9" d="M338.18,182.39v47q-.74,4.25-1.71,8.44h-147V152H327.23a97.08,97.08,0,0,1,5.92,12.62A103.88,103.88,0,0,1,338.18,182.39Z"/><path class="cls-10" d="M222.47,217v-47.2H117V217h0c0,7.8,5.15,15.59,15.45,21.54,20.61,11.9,54,11.9,74.61,0C217.32,232.54,222.47,224.75,222.47,217Z"/><path class="cls-11" d="M222.47,217v-47.2H117V217h0c0,7.8,5.15,15.59,15.45,21.54,20.61,11.9,54,11.9,74.61,0C217.32,232.54,222.47,224.75,222.47,217Z"/><ellipse class="cls-12" cx="169.71" cy="169.75" rx="52.76" ry="30.46"/><ellipse class="cls-13" cx="169.71" cy="163.84" rx="52.76" ry="30.46"/><path class="cls-14" d="M182.57,154.73c-.18,5.51-6.26,9.77-13.58,9.52s-13.1-4.9-12.91-10.41,6.26-9.76,13.58-9.51S182.76,149.23,182.57,154.73Z"/><path class="cls-15" d="M182.57,154.73c-.18,5.51-6.26,9.77-13.58,9.52s-13.1-4.9-12.91-10.41,6.26-9.76,13.58-9.51S182.76,149.23,182.57,154.73Z"/><path class="cls-16" d="M191.35,142.87c-.22,6.71-10.08,11.82-22,11.42s-21.44-6.17-21.21-12.87,10.09-11.82,22-11.42S191.58,136.17,191.35,142.87Z"/><path class="cls-17" d="M191.35,142.87c-.22,6.71-10.08,11.82-22,11.42s-21.44-6.17-21.21-12.87,10.09-11.82,22-11.42S191.58,136.17,191.35,142.87Z"/><ellipse class="cls-18" cx="169.98" cy="134.63" rx="12.15" ry="21.63" transform="translate(29.71 300) rotate(-88.07)"/><ellipse class="cls-19" cx="169.98" cy="134.63" rx="12.15" ry="21.63" transform="translate(29.71 300) rotate(-88.07)"/><path class="cls-20" d="M151.62,137.4c-.6.29-1.46-.22-1.92-1.15s-.36-1.93.24-2.22,1.46.21,1.92,1.14S152.22,137.1,151.62,137.4Z"/><path class="cls-20" d="M152.79,139.2a.76.76,0,0,1-1-.27.81.81,0,0,1,1.43-.71A.76.76,0,0,1,152.79,139.2Z"/><path class="cls-20" d="M151.69,145.48c-.6.3-1.46-.21-1.92-1.14s-.36-1.93.24-2.23,1.46.22,1.92,1.15S152.29,145.18,151.69,145.48Z"/><path class="cls-20" d="M152.86,147.28a.7.7,0,1,1,.4-1A.74.74,0,0,1,152.86,147.28Z"/><path class="cls-21" d="M209.06,83.94c.14-21.8-17.39-36.3-39.12-36.43s-39.45,14.13-39.58,35.93C130.22,104.8,141.13,108,146.7,119a10.67,10.67,0,0,1,1.11,6.48c-.05,8.3,9,13,21.55,13.07s21.66-4.5,21.72-12.79a10.74,10.74,0,0,1,1.18-6.47C198,108.39,208.92,105.3,209.06,83.94Z"/><path class="cls-22" d="M209.06,83.94c0,1.33-.05,2.59-.14,3.8-.07.91-.17,1.79-.28,2.64A33.25,33.25,0,0,1,205.53,101a.53.53,0,0,0-.08.17c-3.61,7.12-9.12,10.89-12.77,17.4-.15.24-.29.5-.42.75a10.7,10.7,0,0,0-1.19,6.47,7.62,7.62,0,0,1,0,1c0,.15,0,.3-.05.44a1.52,1.52,0,0,1,0,.21,2.7,2.7,0,0,1-.08.41,3.15,3.15,0,0,1-.09.42c0,.18-.09.38-.15.56l0,.05a8.8,8.8,0,0,1-.61,1.49.41.41,0,0,1-.05.09c-2.14,4.1-7.21,6.74-13.95,7.72a42.34,42.34,0,0,1-6.63.44c-12.58-.08-21.6-4.77-21.55-13.07A10.7,10.7,0,0,0,146.7,119c-5.57-11-16.48-14.21-16.34-35.57.13-21.8,17.85-36.07,39.57-35.93S209.2,62.14,209.06,83.94Z"/><path class="cls-23" d="M182.16,102.81c-.69-4.14-5.34-9.62-8.75-4.23-2.36,3.73-2.11,9-2.11,13.31v.27l-1.16.06a1,1,0,0,0-.31,0,1.31,1.31,0,0,0-.31-.06c-.38,0-.76,0-1.15-.07v-.25c.06-3.77.07-7.63-1.07-11.22-1.79-5.67-7-5.42-9.1-.09-2,5.08-.13,9,3.35,11.31a14.19,14.19,0,0,0,4.75,2c0,.1,0,.2,0,.29,0,2.81,0,5.62,0,8.43,0,2.5,0,5-.05,7.5,0,1.13,0,2.25,0,3.37l0,5c.67.05,1.36.09,2.05.11l0-5.15,0-3.41c0-2.5,0-5,.05-7.51,0-2.76,0-5.53,0-8.29.38,0,.77.07,1.16.08a1.06,1.06,0,0,0,.31,0,.73.73,0,0,0,.3,0c.39,0,.78,0,1.17-.06,0,2.77,0,5.55,0,8.32,0,2.51,0,5-.05,7.52,0,1.12,0,2.23,0,3.35,0,.26,0,.53,0,.79,0,1.45,0,2.89,0,4.35h.09s0,0,0,0h.14l.67,0,.58,0,.55,0,0-5c0-.49,0-1,0-1.47s0-1.17,0-1.75c0-2.51,0-5,0-7.53,0-2.83,0-5.67.05-8.5v-.27C178.79,112.86,183.23,109.25,182.16,102.81Zm-22.66,1.82c0-2.27,2.3-9.07,5.14-5.07,2.19,3.09,1.89,8.12,1.72,12.28C162.69,111.07,159.54,109,159.5,104.63Zm13.81,7.26c-.12-4.17-.36-9.2,1.87-12.26,2.9-4,5.13,2.86,5.08,5.13C180.16,109.12,177,111.16,173.31,111.89Z"/><ellipse class="cls-24" cx="168.85" cy="67.82" rx="27.58" ry="15.92" transform="translate(-1.79 4.63) rotate(-1.56)"/><path class="cls-25" d="M135.81,94.89a44.24,44.24,0,0,0,8.91,14.34c3.8,4.3,8.36,8.58,9.15,14.26a6.72,6.72,0,0,0,.53,2.33,1.68,1.68,0,0,0,2,.88,2.1,2.1,0,0,0,.84-.88,11.6,11.6,0,0,0,1.49-8.47c-1-4.64-4.56-8-7.55-11.42a27.75,27.75,0,0,1-6.32-12c-.58-2.74-.76-5.55-1.35-8.29a9.6,9.6,0,0,0-1.46-3.7,3.79,3.79,0,0,0-6.75.46,9.11,9.11,0,0,0-.88,4.13A24.23,24.23,0,0,0,135.81,94.89Z"/><path class="cls-26" d="M209.06,83.94c0,1.33-.05,2.59-.14,3.8-.07.91-.17,1.79-.28,2.64A36.1,36.1,0,0,1,205.53,101a.53.53,0,0,0-.08.17c-3.61,7.12-9.12,10.89-12.77,17.4-.15.24-.29.5-.42.75a10.7,10.7,0,0,0-1.19,6.47,7.62,7.62,0,0,1,0,1c0,.15,0,.3-.05.44a1.52,1.52,0,0,1,0,.21,2.7,2.7,0,0,1-.08.41,3.15,3.15,0,0,1-.09.42c0,.18-.09.38-.15.56l0,.05a8.8,8.8,0,0,1-.61,1.49.41.41,0,0,1-.05.09,7.85,7.85,0,0,1,1.67,5,7.46,7.46,0,0,1-1.19,3.72,7.34,7.34,0,0,1,.93,3.79c-.13,4-3.7,7.44-9.09,9.47a7.66,7.66,0,0,1,.31,2.39c-.18,5.5-6.26,9.76-13.58,9.52-.42,0-.82,0-1.23-.09,1.59-1.91,3.38-3.74,4.29-5.54,3.17-6.28,3.56-13.59,3.94-20.49,0-.13,0-.26,0-.39q.48-8.72,1-17.42a5.43,5.43,0,0,1,.3-1.7c.68-1.58,2.69-1.94,4.38-2.34C200,112,207.49,98.33,209.06,83.94Z"/><path class="cls-21" d="M207.42,42.14a3.52,3.52,0,1,1-3.51-3.51A3.52,3.52,0,0,1,207.42,42.14Z"/><path class="cls-21" d="M207.42,139.29a3.52,3.52,0,1,1-3.51-3.51A3.52,3.52,0,0,1,207.42,139.29Z"/><circle class="cls-21" cx="140.23" cy="124.1" r="3.52"/><circle class="cls-21" cx="211.28" cy="31.76" r="2.22"/><circle class="cls-21" cx="207.42" cy="119.42" r="2.22"/><circle class="cls-21" cx="145.97" cy="30.46" r="2.22"/><circle class="cls-21" cx="213.5" cy="146.8" r="2.22"/><circle class="cls-21" cx="134.42" cy="158.17" r="2.22"/><path class="cls-27" d="M222.47,163.84V30.46c0,7.79-5.15,15.59-15.46,21.54-20.6,11.89-54,11.89-74.61,0C122.1,46.05,117,38.25,117,30.46V163.84h0c0,7.79,5.15,15.59,15.45,21.53,20.61,11.9,54,11.9,74.61,0C217.32,179.43,222.47,171.63,222.47,163.84Z"/><path class="cls-28" d="M222.47,163.84V30.46c0,7.79-5.15,15.59-15.46,21.54-20.6,11.89-54,11.89-74.61,0C122.1,46.05,117,38.25,117,30.46V163.84h0c0,7.79,5.15,15.59,15.45,21.53,20.61,11.9,54,11.9,74.61,0C217.32,179.43,222.47,171.63,222.47,163.84Z"/><ellipse class="cls-29" cx="169.71" cy="30.46" rx="52.76" ry="30.46"/><path class="cls-30" d="M124.85,115.61h0a7.21,7.21,0,0,1-3.59-6.23V60.87a1.38,1.38,0,0,1,2.07-1.2h0A7.37,7.37,0,0,1,127,66.06v48.29A1.45,1.45,0,0,1,124.85,115.61Z"/><path class="cls-30" d="M124.85,137.43h0a7.21,7.21,0,0,1-3.59-6.23v-6.89a1.38,1.38,0,0,1,2.07-1.2h0A7.36,7.36,0,0,1,127,129.5v6.68A1.44,1.44,0,0,1,124.85,137.43Z"/><path class="cls-10" d="M304.15,257.14V225.22H232.8v31.92h0c0,5.27,3.49,10.54,10.45,14.56,13.93,8,36.52,8,50.45,0C300.66,267.68,304.15,262.41,304.15,257.14Z"/><path class="cls-31" d="M304.15,257.14V225.22H232.8v31.92h0c0,5.27,3.49,10.54,10.45,14.56,13.93,8,36.52,8,50.45,0C300.66,267.68,304.15,262.41,304.15,257.14Z"/><ellipse class="cls-12" cx="268.47" cy="225.22" rx="35.67" ry="20.59"/><ellipse class="cls-32" cx="268.47" cy="221.22" rx="35.67" ry="20.59"/><path class="cls-21" d="M294.08,163.84a2.38,2.38,0,1,1-2.38-2.38A2.38,2.38,0,0,1,294.08,163.84Z"/><circle class="cls-21" cx="289.32" cy="215.02" r="2.38"/><path class="cls-21" d="M250.92,196.73a2.38,2.38,0,1,1-2.38-2.38A2.38,2.38,0,0,1,250.92,196.73Z"/><path class="cls-21" d="M288.45,153.79a1.5,1.5,0,1,1-1.5-1.5A1.51,1.51,0,0,1,288.45,153.79Z"/><path class="cls-21" d="M281.76,221.22a1.5,1.5,0,1,1-1.5-1.5A1.5,1.5,0,0,1,281.76,221.22Z"/><path class="cls-21" d="M249.78,151.63a1.5,1.5,0,1,1-1.5-1.5A1.5,1.5,0,0,1,249.78,151.63Z"/><path class="cls-21" d="M299.58,195.66a1.5,1.5,0,1,1-1.5-1.5A1.5,1.5,0,0,1,299.58,195.66Z"/><path class="cls-21" d="M246.11,217.39a1.5,1.5,0,1,1-1.5-1.5A1.5,1.5,0,0,1,246.11,217.39Z"/><path class="cls-33" d="M290.85,189.91c0,.11,0,.23,0,.34a22.58,22.58,0,0,1-.37,3.91,15.64,15.64,0,0,1-.54,2.07,11.14,11.14,0,0,1-4.49,6.13h0l-.18.11-.34.19-5.51,3.2-1.24-2.13a19.39,19.39,0,0,1-6.93-2.53c-10.83-6.24-19.59-21.44-19.59-33.94a21.94,21.94,0,0,1,.28-3.55c.11-.7.26-1.38.42-2s.32-1,.5-1.5l-1.3-2.24,5.57-3.21c.19-.11.37-.22.56-.31l.31-.18v0a11.57,11.57,0,0,1,8.07-.51,15.87,15.87,0,0,1,2,.63,22.25,22.25,0,0,1,3.21,1.54l.25.15c.48.28,1,.6,1.44.93a26.81,26.81,0,0,1,2.77,2.09c.4.35.81.69,1.2,1.06.8.73,1.57,1.52,2.33,2.34.34.38.69.77,1,1.17.7.82,1.36,1.66,2,2.53.29.41.59.82.87,1.25.6.87,1.18,1.78,1.72,2.7.26.44.52.88.76,1.32q.78,1.41,1.44,2.85c.22.47.43.93.62,1.39.43,1,.82,2,1.16,3,.18.5.33,1,.48,1.49a29.58,29.58,0,0,1,.81,3.21c.13.52.23,1.06.31,1.58a32.22,32.22,0,0,1,.37,3.47C290.84,189,290.85,189.45,290.85,189.91Z"/><path class="cls-34" d="M268,154.42l-16.1,9.3-1.31.76-.4-1.53,2.13-1.24,13.72-7.92A15.87,15.87,0,0,1,268,154.42Z"/><path class="cls-34" d="M272.94,157l-19.52,11.27-.4-1.53,18.48-10.67C272,156.39,272.46,156.71,272.94,157Z"/><path class="cls-34" d="M276.91,160.19l-20.69,11.94-.39-1.52,19.88-11.48C276.11,159.48,276.52,159.82,276.91,160.19Z"/><path class="cls-34" d="M280.26,163.7,259,176l-.4-1.53,20.61-11.89C279.58,162.91,279.93,163.3,280.26,163.7Z"/><path class="cls-34" d="M283.14,167.48l-21.31,12.3-.39-1.53,20.83-12C282.56,166.64,282.86,167.05,283.14,167.48Z"/><path class="cls-34" d="M285.62,171.5l-21,12.11-.4-1.53,20.62-11.9C285.12,170.62,285.38,171.06,285.62,171.5Z"/><path class="cls-34" d="M287.68,175.74l-20.25,11.7-.4-1.53,20-11.56C287.28,174.82,287.49,175.28,287.68,175.74Z"/><path class="cls-34" d="M289.32,180.25l-19.09,11-.39-1.53,19-11C289,179.26,289.17,179.75,289.32,180.25Z"/><path class="cls-34" d="M290.44,185,273,195.1l-.4-1.53,17.49-10.11C290.26,184,290.36,184.52,290.44,185Z"/><path class="cls-34" d="M290.85,189.91c0,.11,0,.23,0,.34l-15,8.66-.4-1.52,15.37-8.88C290.84,189,290.85,189.45,290.85,189.91Z"/><path class="cls-34" d="M290.47,194.16a15.64,15.64,0,0,1-.54,2.07l-11.3,6.51-.38-1.53Z"/><ellipse class="cls-35" cx="265.69" cy="181.8" rx="16" ry="27.71" transform="translate(-55.3 157.2) rotate(-30)"/><path class="cls-33" d="M269.27,166.19h-2a27.51,27.51,0,0,1,2.16,2l1.22-.71C270.17,167.06,269.72,166.61,269.27,166.19Zm-17.34-2.47s0,.09,0,.13l.43.12a6.58,6.58,0,0,1,.54-.8Zm17.34,2.47h-2a27.51,27.51,0,0,1,2.16,2l1.22-.71C270.17,167.06,269.72,166.61,269.27,166.19Zm-17.36-2.34.43.12a6.58,6.58,0,0,1,.54-.8l-.95.55S251.92,163.81,251.91,163.85Zm29.74,26.27c-.06-.54-.14-1.08-.23-1.62a33.18,33.18,0,0,0-.75-3.26q-.21-.75-.45-1.5c-.33-1-.71-2-1.13-3-.19-.47-.4-1-.61-1.41-.44-1-.92-1.93-1.43-2.86-.25-.45-.5-.89-.76-1.32-.54-.92-1.12-1.82-1.73-2.69-.28-.42-.58-.83-.89-1.24-.64-.88-1.32-1.72-2-2.52-.35-.4-.7-.78-1-1.15s-.88-.91-1.33-1.33-.71-.66-1.07-1-.82-.71-1.24-1a25.25,25.25,0,0,0-2.93-2l-.06,0c-.52-.3-1-.57-1.54-.8a14.17,14.17,0,0,0-4.14-1.3,7.84,7.84,0,0,0-1.35-.11,7.57,7.57,0,0,0-1.91.23,6,6,0,0,0-2.64,1.45l-.17.17h0a7.15,7.15,0,0,0-1.24,1.74c-.14.26-.26.54-.38.81h0a16.83,16.83,0,0,0-1.05,6.13c0,10.71,7.5,24.16,16.65,30.18.4.28.81.53,1.22.77a14.56,14.56,0,0,0,7,2.22,7.44,7.44,0,0,0,2-.26,5.77,5.77,0,0,0,2.07-1,4.81,4.81,0,0,0,.81-.75,7.43,7.43,0,0,0,1.14-1.68h0a13.57,13.57,0,0,0,1.22-4.39,18.26,18.26,0,0,0,.13-1.83c0-.21,0-.41,0-.59A23.43,23.43,0,0,0,281.65,190.12Zm-1.48,6.29a7.81,7.81,0,0,1-2.6,4.91,5.14,5.14,0,0,1-3.13,1,8.64,8.64,0,0,1-1.4-.12h0a14.14,14.14,0,0,1-4.21-1.53h0c-.23-.12-.47-.24-.7-.38-9.32-5.38-17.19-19-17.19-29.76a15.56,15.56,0,0,1,.84-5.28,7.83,7.83,0,0,1,.59-1.24,6.58,6.58,0,0,1,.54-.8h0a4.86,4.86,0,0,1,3.07-1.77h0a7.25,7.25,0,0,1,1-.07,10.92,10.92,0,0,1,4,.88,18,18,0,0,1,1.68.79c.22.11.43.23.65.36a23.36,23.36,0,0,1,2.38,1.58c.43.32.86.66,1.28,1a1.5,1.5,0,0,1,.27.24h0a27.51,27.51,0,0,1,2.16,2c.37.37.72.75,1.06,1.14.71.79,1.39,1.63,2.05,2.5.3.4.6.82.89,1.24.61.87,1.19,1.77,1.73,2.69.26.43.52.87.76,1.32.51.94,1,1.9,1.42,2.87.22.46.42.93.61,1.4.42,1,.79,2,1.1,3.05h0c.17.51.31,1,.45,1.5a30.44,30.44,0,0,1,.69,3.28c.09.55.16,1.1.21,1.64.07.76.11,1.51.11,2.24,0,.4,0,.88,0,1.41A17.15,17.15,0,0,1,280.17,196.41Zm-28.24-32.69s0,.09,0,.13l.43.12a6.58,6.58,0,0,1,.54-.8Zm17.34,2.47h-2a27.51,27.51,0,0,1,2.16,2l1.22-.71C270.17,167.06,269.72,166.61,269.27,166.19Z"/><path class="cls-33" d="M271.15,185.29a9.64,9.64,0,0,0-.71-1.35,12.62,12.62,0,0,0-2.08-2.48c-.4-.37-.81-.73-1.23-1.05s-.62-.48-.93-.7a9,9,0,0,1-1.76-1.44,1.89,1.89,0,0,1-.5-1.26.73.73,0,0,1,0-.22c.07-.27.29-.37.59-.34a3.14,3.14,0,0,1,1.23.46q.24.14.48.3a9.06,9.06,0,0,1,2.46,2.28c.09.11.17.22.25.34l1.51-1.36,0,0h0l.37-.33a16.43,16.43,0,0,0-2-2.43,14.79,14.79,0,0,0-1.19-1.06l-.37-.29v-2l-1-.59-1.53-.88-.72-.42v2.05a6.08,6.08,0,0,0-1.5-.35h0a2,2,0,0,0-2.28,1.32,3.84,3.84,0,0,0-.2,1.31c0,.19,0,.37,0,.55a7.72,7.72,0,0,0,1.7,4.38h0l0,.05a13.8,13.8,0,0,0,2.39,2.31c.43.34.89.67,1.35,1l.05,0a5.14,5.14,0,0,1,2.2,2.35,1,1,0,0,1,.08.4.6.6,0,0,1-.72.68,3.26,3.26,0,0,1-1.42-.52,10.86,10.86,0,0,1-4-4.08l-2.12,1.58a14.55,14.55,0,0,0,4.42,5.23v2.12l3.28,1.89v-2.18a4.67,4.67,0,0,0,2.79.33,2.25,2.25,0,0,0,1.56-2.23h0a4.63,4.63,0,0,0,0-.54A7.27,7.27,0,0,0,271.15,185.29Z"/><path class="cls-36" d="M304.15,221.22V145.6c0,5.27-3.49,10.54-10.45,14.56-13.93,8-36.52,8-50.45,0-7-4-10.45-9.29-10.45-14.56v75.62h0c0,5.27,3.49,10.54,10.45,14.56,13.93,8.05,36.52,8.05,50.45,0C300.66,231.76,304.15,226.49,304.15,221.22Z"/><path class="cls-37" d="M304.15,221.22V145.6c0,5.27-3.49,10.54-10.45,14.56-13.93,8-36.52,8-50.45,0-7-4-10.45-9.29-10.45-14.56v75.62h0c0,5.27,3.49,10.54,10.45,14.56,13.93,8.05,36.52,8.05,50.45,0C300.66,231.76,304.15,226.49,304.15,221.22Z"/><ellipse class="cls-38" cx="268.47" cy="145.6" rx="35.67" ry="20.59"/><path class="cls-30" d="M238.14,188.61h0a4.87,4.87,0,0,1-2.43-4.21V162.55a.94.94,0,0,1,1.41-.81h0a5,5,0,0,1,2.49,4.32v21.7A1,1,0,0,1,238.14,188.61Z"/><path class="cls-30" d="M238.14,203.37h0a4.88,4.88,0,0,1-2.43-4.22V194.5a.94.94,0,0,1,1.41-.81h0a5,5,0,0,1,2.49,4.32v4.51A1,1,0,0,1,238.14,203.37Z"/><path class="cls-10" d="M106.51,157.4V125.49H35.17V157.4h0c0,5.28,3.48,10.55,10.45,14.57,13.93,8,36.52,8,50.45,0C103,168,106.51,162.67,106.51,157.4Z"/><path class="cls-39" d="M106.51,157.4V125.49H35.17V157.4h0c0,5.28,3.48,10.55,10.45,14.57,13.93,8,36.52,8,50.45,0C103,168,106.51,162.67,106.51,157.4Z"/><ellipse class="cls-12" cx="70.84" cy="125.49" rx="35.67" ry="20.59"/><ellipse class="cls-40" cx="70.84" cy="121.49" rx="35.67" ry="20.59"/><circle class="cls-41" cx="94.07" cy="64.11" r="2.38"/><circle class="cls-41" cx="91.69" cy="115.28" r="2.38"/><path class="cls-41" d="M53.29,97a2.38,2.38,0,1,1-2.38-2.38A2.39,2.39,0,0,1,53.29,97Z"/><path class="cls-41" d="M90.81,54.05a1.5,1.5,0,1,1-1.5-1.5A1.5,1.5,0,0,1,90.81,54.05Z"/><path class="cls-41" d="M84.13,121.49a1.5,1.5,0,1,1-1.5-1.5A1.5,1.5,0,0,1,84.13,121.49Z"/><path class="cls-41" d="M52.15,51.9a1.5,1.5,0,1,1-1.5-1.5A1.5,1.5,0,0,1,52.15,51.9Z"/><path class="cls-41" d="M102,95.93a1.5,1.5,0,1,1-1.5-1.5A1.5,1.5,0,0,1,102,95.93Z"/><path class="cls-41" d="M48.48,117.66a1.5,1.5,0,1,1-1.5-1.5A1.5,1.5,0,0,1,48.48,117.66Z"/><path class="cls-41" d="M93.22,90.17c0,.11,0,.24,0,.35a21.61,21.61,0,0,1-.38,3.91,14.23,14.23,0,0,1-.53,2.07,11.14,11.14,0,0,1-4.49,6.13h0l-.18.11-.34.19-5.51,3.2L80.55,104a19.17,19.17,0,0,1-6.93-2.52C62.79,95.24,54,80,54,67.54A23.17,23.17,0,0,1,54.3,64c.11-.71.27-1.38.43-2s.32-1,.5-1.51l-1.3-2.23L59.5,55c.19-.11.37-.22.56-.31l.31-.18v0a11.69,11.69,0,0,1,8.07-.51,17.87,17.87,0,0,1,2,.64,22.76,22.76,0,0,1,3.21,1.54l.25.15q.72.42,1.44.93a26.81,26.81,0,0,1,2.77,2.09c.4.34.81.69,1.2,1.06.8.73,1.57,1.52,2.33,2.34.34.37.69.77,1,1.17.7.82,1.36,1.66,2,2.52.29.42.59.83.87,1.26.6.86,1.18,1.77,1.72,2.7.26.44.52.88.76,1.32q.78,1.41,1.44,2.85c.22.47.43.92.62,1.39.43,1,.81,2,1.16,3,.18.49.33,1,.48,1.49a29.58,29.58,0,0,1,.81,3.21c.13.52.22,1.06.31,1.58a32.22,32.22,0,0,1,.37,3.47C93.21,89.25,93.22,89.72,93.22,90.17Z"/><path class="cls-42" d="M93.22,90.17c0,.11,0,.24,0,.35a21.61,21.61,0,0,1-.38,3.91,14.23,14.23,0,0,1-.53,2.07,11.14,11.14,0,0,1-4.49,6.13h0l-.18.11-.34.19-5.51,3.2L80.55,104a19.17,19.17,0,0,1-6.93-2.52C62.79,95.24,54,80,54,67.54A23.17,23.17,0,0,1,54.3,64c.11-.71.27-1.38.43-2s.32-1,.5-1.51l-1.3-2.23L59.5,55c.19-.11.37-.22.56-.31l.31-.18v0a11.69,11.69,0,0,1,8.07-.51,17.87,17.87,0,0,1,2,.64,22.76,22.76,0,0,1,3.21,1.54l.25.15q.72.42,1.44.93a26.81,26.81,0,0,1,2.77,2.09c.4.34.81.69,1.2,1.06.8.73,1.57,1.52,2.33,2.34.34.37.69.77,1,1.17.7.82,1.36,1.66,2,2.52.29.42.59.83.87,1.26.6.86,1.18,1.77,1.72,2.7.26.44.52.88.76,1.32q.78,1.41,1.44,2.85c.22.47.43.92.62,1.39.43,1,.81,2,1.16,3,.18.49.33,1,.48,1.49a29.58,29.58,0,0,1,.81,3.21c.13.52.22,1.06.31,1.58a32.22,32.22,0,0,1,.37,3.47C93.21,89.25,93.22,89.72,93.22,90.17Z"/><ellipse class="cls-43" cx="68.06" cy="82.07" rx="16" ry="27.71" transform="translate(-31.92 45.03) rotate(-30)"/><ellipse class="cls-44" cx="68.06" cy="82.07" rx="12.62" ry="21.85" transform="translate(-31.92 45.03) rotate(-30)"/><ellipse class="cls-44" cx="68.06" cy="82.07" rx="8.8" ry="15.24" transform="translate(-31.92 45.03) rotate(-30)"/><path class="cls-44" d="M74.44,85.75c0,4.06-2.86,5.71-6.38,3.68a14.1,14.1,0,0,1-6.38-11.05c0-4.06,2.86-5.71,6.38-3.68A14.12,14.12,0,0,1,74.44,85.75Z"/><path class="cls-12" d="M70.57,83.51c0,1.6-1.12,2.25-2.51,1.45a5.55,5.55,0,0,1-2.51-4.34c0-1.6,1.13-2.25,2.51-1.45A5.52,5.52,0,0,1,70.57,83.51Z"/><path class="cls-45" d="M106.51,121.49V45.87c0,5.27-3.48,10.54-10.44,14.56-13.93,8-36.52,8-50.45,0-7-4-10.45-9.29-10.45-14.56v75.62h0c0,5.27,3.48,10.54,10.45,14.56,13.93,8,36.52,8,50.45,0C103,132,106.51,126.76,106.51,121.49Z"/><path class="cls-46" d="M106.51,121.49V45.87c0,5.27-3.48,10.54-10.44,14.56-13.93,8-36.52,8-50.45,0-7-4-10.45-9.29-10.45-14.56v75.62h0c0,5.27,3.48,10.54,10.45,14.56,13.93,8,36.52,8,50.45,0C103,132,106.51,126.76,106.51,121.49Z"/><ellipse class="cls-47" cx="70.84" cy="45.87" rx="35.67" ry="20.59"/><path class="cls-30" d="M40.51,88.88h0a4.87,4.87,0,0,1-2.43-4.21V62.82A.94.94,0,0,1,39.49,62h0A5,5,0,0,1,42,66.33V88A1,1,0,0,1,40.51,88.88Z"/><path class="cls-30" d="M40.51,103.63h0a4.86,4.86,0,0,1-2.43-4.21V94.76A.94.94,0,0,1,39.49,94h0A5,5,0,0,1,42,98.27v4.52A1,1,0,0,1,40.51,103.63Z"/><path class="cls-48" d="M179.65,211.77s-5.88,6.27-6.27,12.5l1.15,2.45L176.9,225s1.68-8.18,4.74-10.63Z"/><path class="cls-49" d="M193.47,285.15s.41,3.87-1.49,3.67c-2.2-.24-9-4.84-7.52-6.29s7.23,1.17,7.23,1.17Z"/><path class="cls-49" d="M181.31,290.88s.41,3.88-1.48,3.67c-2.21-.23-9.05-4.84-7.53-6.29s7.23,1.18,7.23,1.18Z"/><rect class="cls-50" x="183.05" y="194.28" width="4.06" height="5.73"/><path class="cls-48" d="M178.73,225.19s-6.54,14.9-1.63,66.06a.82.82,0,0,0,.4.64c.86.49,3,1.37,4.15-1.52a.7.7,0,0,0,0-.25L186,236.54c0-.86.48-.9.57,0l2.61,49a.92.92,0,0,0,.6.82c1.14.43,3.65.93,4.11-2.67,0,0,4.44-53-.74-60.19Z"/><path class="cls-49" d="M193.11,221.81a2.92,2.92,0,0,1-.43.61c-1.49,1.52-5.5,4.27-13.48,1.41a1.31,1.31,0,0,1-.47-.28v1.64a1.31,1.31,0,0,0,.47.28c8,2.86,12,.11,13.48-1.41a2.92,2.92,0,0,0,.43-.61Z"/><path class="cls-12" d="M209.34,173.21s0-3.47.47-3.55.32,1.1.32,1.1.39-2.57,1-2.43c.21,0-.05,1.63-.05,1.63s.24-.91,1.68,0c.45.28.34,1.13-1.37,3.82Z"/><path class="cls-51" d="M192.25,196.47s12.15-1.05,16.95-23.54a2.77,2.77,0,0,1,2.33.82s-.72,27-17.53,32.23Z"/><path class="cls-52" d="M183.05,198.07l4.06-.92,6.4-.84c1.57-.21,2.7,2.06,2.81,4.49.21,4.62-2.89,20.32-2.89,20.32a2.69,2.69,0,0,1-.74,1.7c-1.48,1.52-5.48,4.28-13.49,1.42a1.47,1.47,0,0,1-.95-1.16l-3-18.57a2.53,2.53,0,0,1,1.06-2.5Z"/><path class="cls-12" d="M178,187.07s.49,5.55,2.78,8.39,6.73-1.85,7.4-3.22,1.73-9.94-5.16-9.94C178.55,182.3,177.77,185.08,178,187.07Z"/><path class="cls-48" d="M184.63,190.52a9.32,9.32,0,0,1-3.17-4.42s-.51-.31-3.33,2.06c0,0-3.18,0-1.7-3.37S184,177.2,187,180.55c0,0,5.6-.93,4.52,6.32-1.43,9.56-5.91,8-7,5.8S184.63,190.52,184.63,190.52Z"/><path class="cls-12" d="M183.19,189.4s.93-1.82,1.69-.74-.16,3.29-1.83,3.58Z"/><polygon class="cls-48" points="157.86 196.42 166.48 205 175.13 199.86 166.48 191.01 157.86 196.42"/><polyline class="cls-53" points="165.75 201.01 165.75 199.08 167.57 199.08 167.57 195.03"/><polyline class="cls-53" points="165.85 196.15 167.47 194.54 169.28 196.36"/><path class="cls-12" d="M161.6,200.13a12.53,12.53,0,0,1,1.21-1.33.22.22,0,0,1,.36.21l-.36,1.27s1.83-.51.81,2.51l-1.79.49Z"/><path class="cls-51" d="M163.78,202.75s9.44,17,3.82,18-5.89-17.48-5.89-17.48A2.09,2.09,0,0,1,163.78,202.75Z"/><path class="cls-51" d="M176.33,202s-2.54,1.27-6.07,6.29c-4.78,6.82-7,10.89-2.54,12.39,1.13.38,8.9-7.77,8.9-7.77S179.78,206.16,176.33,202Z"/><path class="cls-51" d="M182.23,198.55l.82-1.4a8.54,8.54,0,0,1,4.06-.91l1,.82S187.87,198,182.23,198.55Z"/><polygon class="cls-10" points="99.36 181.77 68.67 251.01 65.88 249.35 65.88 209.11 99.36 181.77"/><polygon class="cls-10" points="102.15 183.43 102.15 231.67 68.67 251.01 68.67 210.77 102.15 183.43"/><polygon class="cls-54" points="102.15 183.43 102.15 231.67 68.67 251.01 68.67 210.77 102.15 183.43"/><polygon class="cls-10" points="153.28 212.85 122.59 282.09 119.8 280.43 119.8 240.2 153.28 212.85"/><polygon class="cls-10" points="156.07 214.51 156.07 262.76 122.59 282.09 122.59 241.85 156.07 214.51"/><polygon class="cls-55" points="156.07 214.51 156.07 262.76 122.59 282.09 122.59 241.85 156.07 214.51"/><polygon class="cls-10" points="122.59 244.55 65.88 211.81 156.07 214.51 156.07 217.21 122.59 244.55"/><polygon class="cls-56" points="122.59 244.55 65.88 211.81 156.07 214.51 156.07 217.21 122.59 244.55"/><polygon class="cls-12" points="122.59 241.85 65.88 209.11 99.36 181.77 156.07 214.51 122.59 241.85"/><polygon class="cls-48" points="121.82 237.35 72.47 208.85 100.13 186.26 149.47 214.77 121.82 237.35"/><path class="cls-57" d="M109.34,212.39l-18.8-10.87a.71.71,0,0,1-.1-1.17l9.91-8.1a1.66,1.66,0,0,1,1.87-.15l18.54,10.72a.92.92,0,0,1,.13,1.51l-9.68,7.91A1.66,1.66,0,0,1,109.34,212.39Z"/><path class="cls-58" d="M100.91,219.13,82.1,208.26a.71.71,0,0,1-.09-1.17l4.9-3.91a1.61,1.61,0,0,1,1.86-.15l18.55,10.71a.93.93,0,0,1,.12,1.52L102.77,219A1.65,1.65,0,0,1,100.91,219.13Z"/><path class="cls-59" d="M110.42,224.82l-6.13-3.51a.71.71,0,0,1-.09-1.17l4.9-3.91a1.61,1.61,0,0,1,1.86-.15l5.87,3.35A.93.93,0,0,1,117,221l-4.67,3.72A1.65,1.65,0,0,1,110.42,224.82Z"/><path class="cls-60" d="M120,230.25l-6.54-3.87a.73.73,0,0,1-.1-1.18l4.91-3.91a1.65,1.65,0,0,1,1.86-.15l6.28,3.72a.93.93,0,0,1,.12,1.52l-4.67,3.72A1.65,1.65,0,0,1,120,230.25Z"/><polygon class="cls-10" points="122.59 244.55 122.59 241.85 65.88 209.11 65.88 211.81 122.59 244.55"/><path class="cls-61" d="M94.23,200.94c0-.1,9.13-.73,9.13-.73l1.75,3.17h10.94l-2.37-1.13"/><line class="cls-61" x1="116.05" y1="203.38" x2="116.05" y2="205.26"/><ellipse class="cls-43" cx="126.2" cy="207.14" rx="1.14" ry="0.66"/><ellipse class="cls-62" cx="129.5" cy="209.02" rx="1.14" ry="0.66"/><path class="cls-43" d="M133.6,211.36a1.76,1.76,0,0,1-1.61,0c-.45-.26-.45-.67,0-.93a1.76,1.76,0,0,1,1.61,0C134.05,210.69,134.05,211.1,133.6,211.36Z"/><path class="cls-43" d="M136.9,213.24a1.76,1.76,0,0,1-1.61,0c-.45-.26-.45-.67,0-.93a1.76,1.76,0,0,1,1.61,0A.49.49,0,0,1,136.9,213.24Z"/><path class="cls-43" d="M140.19,215.12a1.76,1.76,0,0,1-1.61,0,.49.49,0,0,1,0-.93,1.76,1.76,0,0,1,1.61,0C140.64,214.45,140.64,214.86,140.19,215.12Z"/><path class="cls-43" d="M124.3,209.66a1.76,1.76,0,0,1-1.61,0c-.45-.25-.45-.67,0-.93a1.82,1.82,0,0,1,1.61,0A.49.49,0,0,1,124.3,209.66Z"/><path class="cls-43" d="M127.6,211.54a1.78,1.78,0,0,1-1.62,0,.49.49,0,0,1,0-.93,1.78,1.78,0,0,1,1.62,0A.49.49,0,0,1,127.6,211.54Z"/><path class="cls-43" d="M130.89,213.42a1.76,1.76,0,0,1-1.61,0c-.45-.26-.45-.67,0-.93a1.76,1.76,0,0,1,1.61,0C131.34,212.75,131.34,213.16,130.89,213.42Z"/><path class="cls-62" d="M134.19,215.3a1.78,1.78,0,0,1-1.62,0,.49.49,0,0,1,0-.93,1.78,1.78,0,0,1,1.62,0A.49.49,0,0,1,134.19,215.3Z"/><path class="cls-62" d="M137.48,217.18a1.76,1.76,0,0,1-1.61,0c-.45-.26-.45-.67,0-.93a1.76,1.76,0,0,1,1.61,0C137.93,216.51,137.93,216.92,137.48,217.18Z"/><path class="cls-62" d="M121.59,211.72a1.76,1.76,0,0,1-1.61,0c-.45-.25-.45-.67,0-.93a1.82,1.82,0,0,1,1.61,0A.49.49,0,0,1,121.59,211.72Z"/><path class="cls-43" d="M124.88,213.6a1.76,1.76,0,0,1-1.61,0,.49.49,0,0,1,0-.93,1.76,1.76,0,0,1,1.61,0C125.33,212.93,125.33,213.35,124.88,213.6Z"/><ellipse class="cls-62" cx="127.37" cy="215.02" rx="1.14" ry="0.66"/><path class="cls-43" d="M131.47,217.36a1.76,1.76,0,0,1-1.61,0,.49.49,0,0,1,0-.93,1.76,1.76,0,0,1,1.61,0C131.92,216.69,131.92,217.1,131.47,217.36Z"/><path class="cls-43" d="M134.77,219.24a1.76,1.76,0,0,1-1.61,0c-.45-.26-.45-.67,0-.93a1.76,1.76,0,0,1,1.61,0C135.22,218.57,135.22,219,134.77,219.24Z"/><path class="cls-43" d="M118.88,213.78a1.76,1.76,0,0,1-1.61,0c-.45-.25-.45-.67,0-.93a1.82,1.82,0,0,1,1.61,0A.49.49,0,0,1,118.88,213.78Z"/><path class="cls-43" d="M122.17,215.66a1.76,1.76,0,0,1-1.61,0,.49.49,0,0,1,0-.93,1.76,1.76,0,0,1,1.61,0C122.62,215,122.62,215.41,122.17,215.66Z"/><path class="cls-43" d="M125.47,217.54a1.76,1.76,0,0,1-1.61,0c-.45-.26-.45-.67,0-.93a1.76,1.76,0,0,1,1.61,0A.49.49,0,0,1,125.47,217.54Z"/><path class="cls-43" d="M128.76,219.42a1.76,1.76,0,0,1-1.61,0,.49.49,0,0,1,0-.93,1.76,1.76,0,0,1,1.61,0C129.21,218.75,129.21,219.16,128.76,219.42Z"/><path class="cls-62" d="M132.06,221.3a1.76,1.76,0,0,1-1.61,0c-.45-.26-.45-.67,0-.93a1.76,1.76,0,0,1,1.61,0A.49.49,0,0,1,132.06,221.3Z"/><ellipse class="cls-62" cx="115.36" cy="215.38" rx="1.14" ry="0.66"/><ellipse class="cls-43" cx="118.66" cy="217.26" rx="1.14" ry="0.66"/><path class="cls-62" d="M122.76,219.6a1.76,1.76,0,0,1-1.61,0c-.45-.26-.45-.67,0-.93a1.76,1.76,0,0,1,1.61,0A.49.49,0,0,1,122.76,219.6Z"/><ellipse class="cls-43" cx="125.25" cy="221.02" rx="1.14" ry="0.66"/><path class="cls-62" d="M129.35,223.36a1.76,1.76,0,0,1-1.61,0c-.45-.26-.45-.67,0-.93a1.76,1.76,0,0,1,1.61,0A.49.49,0,0,1,129.35,223.36Z"/><line class="cls-63" x1="87.64" y1="205.03" x2="104.33" y2="214.79"/><line class="cls-63" x1="86.42" y1="206" x2="103.11" y2="215.76"/><line class="cls-63" x1="85.19" y1="206.97" x2="101.89" y2="216.74"/><path class="cls-48" d="M79.06,206s6.21,6.62,6.62,13.19l-1.21,2.59L82,220s-1.78-8.64-5-11.22Z"/><path class="cls-49" d="M64.48,283.45s-.43,4.09,1.57,3.88c2.33-.25,9.55-5.11,7.94-6.64s-7.63,1.24-7.63,1.24Z"/><path class="cls-49" d="M77.31,289.51s-.43,4.09,1.57,3.87c2.33-.24,9.55-5.11,7.94-6.64S79.19,288,79.19,288Z"/><rect class="cls-12" x="71.19" y="187.55" width="4.28" height="6.05" transform="translate(146.67 381.15) rotate(180)"/><path class="cls-48" d="M80,220.17s6.89,15.73,1.72,69.73a.88.88,0,0,1-.43.67c-.9.52-3.19,1.44-4.37-1.61a.76.76,0,0,1-.06-.25l-4.49-56.56c0-.91-.51-1-.6,0l-2.76,51.71a1,1,0,0,1-.63.86c-1.21.46-3.85,1-4.35-2.82,0,0-4.68-55.93.79-63.52Z"/><path class="cls-49" d="M64.86,216.61a2.6,2.6,0,0,0,.46.64c1.57,1.61,5.79,4.5,14.22,1.49a1.48,1.48,0,0,0,.5-.3v1.73a1.48,1.48,0,0,1-.5.3c-8.43,3-12.65.12-14.22-1.49a2.6,2.6,0,0,1-.46-.64Z"/><path class="cls-52" d="M75.48,191.55l-4.29-1-6.75-.88c-1.66-.21-2.85,2.18-3,4.74-.22,4.87,3,21.45,3,21.45a2.79,2.79,0,0,0,.78,1.79c1.56,1.6,5.79,4.52,14.24,1.5a1.53,1.53,0,0,0,1-1.22l3.15-19.61a2.71,2.71,0,0,0-1.12-2.64Z"/><path class="cls-12" d="M80.81,179.94s-.52,5.85-2.94,8.85-7.1-1.95-7.8-3.39-1.83-10.5,5.44-10.5C80.22,174.9,81.05,177.83,80.81,179.94Z"/><path class="cls-48" d="M73.81,183.58a9.84,9.84,0,0,0,3.35-4.67s.53-.32,3.51,2.17c0,0,3.35,0,1.79-3.54s-8-8-11.11-4.48c0,0-5.91-1-4.77,6.67,1.51,10.09,6.23,8.43,7.42,6.12S73.81,183.58,73.81,183.58Z"/><path class="cls-12" d="M75.33,182.4s-1-1.93-1.78-.78.16,3.48,1.92,3.78Z"/><path class="cls-12" d="M110.74,216.86a11.22,11.22,0,0,1,1.08,1.57.22.22,0,0,1-.3.31l-1.22-.67s.08,2-2.78.22l-.06-1.95Z"/><path class="cls-51" d="M108.06,216.28s-17.83-10.13-19-4.21,18.39,6.38,18.39,6.38A2.18,2.18,0,0,0,108.06,216.28Z"/><path class="cls-51" d="M82.57,195.7s2.68,1.34,6.4,6.65c5,7.19,7.38,11.49,2.68,13.08-1.18.4-9.39-8.21-9.39-8.21S78.93,200.09,82.57,195.7Z"/><path class="cls-51" d="M76.35,192.06l-.87-1.49a9.15,9.15,0,0,0-4.29-1l-1,.88S70.39,191.5,76.35,192.06Z"/><path class="cls-64" d="M269.19,83.55c3.53,9.57,16.65,21.85,27.44,17.25,5.34-2.27,8.25-9.75,4.68-14.32-2.54-3.25-7.1-4-10.39-6.55-2.93-2.23-4.65-5.65-6.87-8.59s-5.51-5.62-9.17-5.21C267.2,67,267.19,77.57,269,83,269.05,83.18,269.12,83.36,269.19,83.55Z"/></g></g></g></svg>